HIERARCHY
ROOT hip
{
	OFFSET 0.000000 0.000000 0.000000 
	CHANNELS 6 Xposition Yposition Zposition Xrotation Zrotation Yrotation
	JOINT abdomen
	{
		OFFSET 0.000000 3.402643 0.000000 
		CHANNELS 3 Xrotation Zrotation Yrotation
		JOINT chest
		{
			OFFSET 0.000000 8.438565 -0.680529 
			CHANNELS 3 Xrotation Zrotation Yrotation
			JOINT neck
			{
				OFFSET 0.000000 10.207942 -0.272212 
				CHANNELS 3 Xrotation Zrotation Yrotation
				JOINT head
				{
					OFFSET 0.000000 3.130431 0.000000 
					CHANNELS 3 Xrotation Zrotation Yrotation
					End Site
					{
						OFFSET 0.000000 3.130435 0.000000 
					}
				}
			}
			JOINT lCollar
			{
				OFFSET 3.470700 6.669187 -0.816635 
				CHANNELS 3 Yrotation Zrotation Xrotation
				JOINT lShldr
				{
					OFFSET 3.198488 0.000000 0.000000 
					CHANNELS 3 Zrotation Yrotation Xrotation
					JOINT lForeArm
					{
						OFFSET 10.139888 0.000000 0.000000 
						CHANNELS 3 Yrotation Zrotation Xrotation
						JOINT lHand
						{
							OFFSET 8.370511 0.000000 0.000000 
							CHANNELS 3 Zrotation Yrotation Xrotation
							End Site
							{
								OFFSET 4.083176 0.000000 0.000000 
							}
						}
					}
				}
			}
			JOINT rCollar
			{
				OFFSET -3.470700 6.669187 -0.816635 
				CHANNELS 3 Yrotation Zrotation Xrotation
				JOINT rShldr
				{
					OFFSET -3.198488 0.000000 0.000000 
					CHANNELS 3 Zrotation Yrotation Xrotation
					JOINT rForeArm
					{
						OFFSET -10.139888 0.000000 0.000000 
						CHANNELS 3 Yrotation Zrotation Xrotation
						JOINT rHand
						{
							OFFSET -8.370511 0.000000 0.000000 
							CHANNELS 3 Zrotation Yrotation Xrotation
							End Site
							{
								OFFSET -4.083176 0.000000 0.000000 
							}
						}
					}
				}
			}
		}
	}
	JOINT lThigh
	{
		OFFSET 5.308129 -1.633274 1.361059 
		CHANNELS 3 Xrotation Zrotation Yrotation
		JOINT lShin
		{
			OFFSET -2.041588 -20.007561 0.000000 
			CHANNELS 3 Xrotation Zrotation Yrotation
			JOINT lFoot
			{
				OFFSET 0.000000 -19.190928 -1.224953 
				CHANNELS 3 Xrotation Yrotation Zrotation
				End Site
				{
					OFFSET 0.000000 -2.449906 4.627600 
				}
			}
		}
	}
	JOINT rThigh
	{
		OFFSET -5.308129 -1.633274 1.361059 
		CHANNELS 3 Xrotation Zrotation Yrotation
		JOINT rShin
		{
			OFFSET 2.041588 -20.007561 0.000000 
			CHANNELS 3 Xrotation Zrotation Yrotation
			JOINT rFoot
			{
				OFFSET 0.000000 -19.190928 -1.224953 
				CHANNELS 3 Xrotation Yrotation Zrotation
				End Site
				{
					OFFSET 0.000000 -2.449906 4.627600 
				}
			}
		}
	}
}
MOTION
Frames: 11
Frame Time: 0.016667
6.127507 37.387863 -132.694366 -0.039063 4.736328 -16.269529 0.000000 0.000000 0.000000 2.412109 -0.068359 -2.236340 14.365235 20.205078 -0.846236 4.775391 -25.517578 11.743839 -16.533201 -10.908204 10.412004 -46.542973 -51.933594 -0.488281 -132.187500 -3.017578 -13.574219 61.533203 3.828125 -10.478516 -14.501951 24.560545 10.904143 69.550781 44.619141 60.722656 130.830078 -1.650391 3.310547 12.734375 -9.130859 -4.718347 -43.107769 -2.529550 5.733907 68.008438 -3.119463 9.905067 -27.495361 -3.079935 9.153279 -49.158459 -1.113381 11.226133 88.647003 -6.298913 -13.822326 -27.883396 3.254974 -10.876942 
5.935070 36.942970 -129.377625 -0.126953 5.488281 -16.132813 0.000000 0.000000 0.000000 2.177735 -1.083984 -2.705263 15.781249 20.507813 0.068360 3.261719 -25.625000 13.417968 -18.056641 -10.546875 10.019531 -45.771484 -51.601566 -1.455078 -132.138672 -2.998047 -13.173318 61.464844 4.130859 -10.292267 -15.566406 24.902346 10.445107 69.218750 44.804688 60.927734 131.259766 -1.630859 3.486328 12.841797 -10.957031 -4.874902 -39.293114 -4.199224 7.284437 71.631279 -2.953583 10.724576 -33.933781 -4.092741 10.049979 -52.666580 -1.408274 10.695091 87.197632 -6.171661 -6.570207 -24.524113 0.714141 -3.166652 
5.766278 36.868126 -125.378006 0.263672 5.273433 -16.405363 0.000000 0.000000 0.000000 2.021484 -0.927734 -2.968750 15.058593 22.119143 -0.185547 2.197266 -27.480469 14.419323 -19.238283 -8.935547 10.048828 -46.718750 -52.695316 -1.464843 -132.158203 -2.988281 -12.958985 60.937500 3.740235 -10.468750 -17.363281 25.000000 10.468750 69.277344 45.771484 61.872231 130.742188 -1.689453 3.867188 12.207031 -10.556642 -4.853516 -33.074825 -5.565912 8.020428 72.696854 -2.897654 11.843309 -40.762810 -4.674064 9.446197 -57.415207 -0.470153 8.108285 77.247787 -5.329820 -3.172172 -23.963614 0.049529 -0.524727 
5.618520 37.031761 -121.340248 0.625000 4.697266 -17.568359 0.000000 0.000000 0.000000 2.031250 -0.615234 -3.017683 11.035156 24.033203 -0.869141 4.306641 -29.521484 14.365233 -19.375000 -5.634766 10.919105 -50.156250 -54.462891 0.029298 -132.343750 -2.919922 -11.748047 60.908207 3.212891 -10.800232 -18.583982 25.000000 11.275169 69.365234 47.226563 63.151703 129.785172 -1.875000 5.976881 11.142578 -7.246094 -4.638672 -25.368801 -6.512830 8.809381 70.745605 -3.015244 12.311944 -45.874596 -4.124090 6.968607 -59.235409 0.839284 5.645909 62.973873 -4.018911 -1.055961 -23.629202 -0.372901 1.043622 
5.486853 37.388100 -117.177818 0.859375 4.189453 -19.023439 0.000000 0.000000 0.000000 2.255860 -0.224609 -2.959023 6.308594 25.078127 -1.040783 7.802734 -31.044918 14.414063 -18.808594 -1.591797 12.460937 -55.888672 -56.699219 3.302387 -132.675781 -2.812500 -9.736327 61.201172 2.939453 -11.005359 -18.964844 24.404299 12.613153 70.351563 48.984375 64.558151 128.291016 -2.236328 10.771866 9.716796 -0.751953 -4.316406 -17.023153 -7.683979 9.533650 67.052353 -3.132626 10.754058 -46.995625 -3.158018 4.825875 -57.463882 2.059188 3.842606 45.571133 -2.443929 4.046536 -23.072819 -0.966755 3.498243 
5.295237 37.814163 -112.710419 0.439453 3.935546 -20.449221 0.000000 0.000000 0.000000 2.597656 0.029297 -2.929682 0.791016 25.371044 -1.900117 12.724609 -31.787109 13.720702 -17.871094 2.207031 14.199219 -62.558590 -58.730469 7.345169 -133.193359 -2.695313 -7.666015 60.810547 2.695313 -11.103055 -20.576170 23.398439 14.488310 72.089844 51.230469 67.820114 125.791023 -2.714844 16.240820 6.357422 7.617188 -4.462891 -8.247639 -9.332897 9.978123 62.834251 -3.356949 7.180450 -43.480095 -1.147596 0.966151 -53.308018 3.203092 3.471460 30.166893 -0.883787 9.212592 -23.619186 -2.449383 9.098078 
5.041518 38.198036 -108.098106 -0.214844 4.072266 -21.435547 0.000000 0.000000 0.000000 2.958984 0.185547 -2.958985 -2.363281 24.589846 -1.900234 16.083986 -31.933598 13.666709 -17.031250 4.863281 15.594875 -68.408203 -60.068359 11.455077 -133.603516 -2.558594 -5.243705 60.449223 2.539062 -11.161676 -22.617188 22.382813 16.191406 73.750000 53.486332 71.250000 122.929688 -3.222656 22.236877 2.578125 14.765626 -5.156250 -1.315549 -10.783937 9.988619 60.498863 -3.493865 1.747864 -34.144207 1.710184 -5.811054 -49.929867 4.042959 3.580063 24.793398 -0.219785 10.047076 -24.723148 -3.372531 12.003210 
4.792234 38.433529 -103.632858 -1.074219 4.814454 -22.187500 0.000000 0.000000 0.000000 3.164063 0.009766 -2.783201 -4.013672 23.496342 -1.900404 18.242186 -31.767578 13.222656 -16.738281 5.976563 16.308594 -71.611328 -60.419922 13.710938 -134.150391 -2.470703 -3.857422 59.912106 2.333985 -11.220703 -23.349609 21.240232 16.894533 74.677734 55.195313 73.220909 121.611328 -3.593750 26.689455 -0.654297 17.031250 -5.973702 0.419832 -11.190491 10.347703 63.785545 -3.564380 -3.726911 -13.552708 1.297855 -8.105146 -47.489136 4.619210 5.962868 28.193838 -0.696573 8.281739 -25.429602 -3.558877 12.356925 
4.500771 38.565464 -99.586388 -1.572266 4.404297 -22.792217 0.000000 0.000000 0.000000 3.457031 0.615234 -2.089844 -3.017578 22.929688 -1.757813 18.144533 -31.416019 12.836708 -16.826172 5.449219 16.904299 -70.673828 -60.605469 13.194615 -134.101563 -2.451172 -3.427317 60.058590 2.392578 -11.201171 -22.919922 20.537109 17.294926 74.316406 55.771484 72.988281 121.923820 -3.681641 28.066406 -1.201172 13.701172 -5.993781 -3.004691 -8.734774 11.074686 71.529854 -3.300282 -5.785854 4.792573 0.211484 -6.488804 -46.532669 6.230728 7.554101 35.817139 -1.186840 11.062812 -20.631065 -2.135908 8.898661 
4.242797 38.159187 -95.863495 -1.630859 3.837891 -23.750000 0.000000 0.000000 0.000000 3.417969 0.390625 -1.894462 -1.230469 23.261719 -0.244141 16.279297 -30.976568 12.998047 -15.732422 4.375000 16.855469 -65.683594 -60.957035 9.718026 -133.779297 -2.451172 -3.388254 59.970699 2.695313 -11.015624 -20.380859 21.240234 17.164429 73.740234 55.732422 71.894531 123.398430 -3.515625 26.611328 0.839844 6.406250 -5.399401 -9.909922 -4.306460 13.436647 83.459999 -2.275093 -1.118374 2.483445 0.349969 -2.942281 -47.928783 8.193606 8.822190 47.015316 -2.476671 10.201518 -18.415297 -1.512871 6.694714 
4.043639 37.763870 -92.526985 -1.210938 3.505859 -24.404299 0.000000 0.000000 0.000000 3.339844 0.400391 -1.621092 2.324219 22.470703 1.835938 12.656250 -29.531252 13.647531 -14.892577 1.904297 16.239910 -58.173828 -60.761719 3.985620 -133.378906 -2.529297 -4.824219 60.371094 2.958984 -10.898438 -17.089844 21.103518 16.226954 74.130859 54.609375 70.458992 125.234375 -3.222656 23.662109 3.955078 -0.781250 -4.941539 -20.006910 0.644067 13.528255 93.443703 -1.543416 4.528042 -3.319999 0.125778 -0.296596 -48.423576 8.738539 8.136344 55.484718 -3.207097 9.349682 -17.263969 -0.417556 1.748524 
